# xmcd
# 
# Track frame offsets:
#     182
#     18935
#     42685
#     64477
#     82902
#     104937
#     126505
#     143630
#     166975
#     188027
#     206560
# 
# Disc length: 2989
# 
# Revision: 0
# Processed by: cddbd v1.5.2PL0 Copyright (c) Steve Scherf et al.
# Submitted via: BonkEnc v1.0.8
# 
DISCID=a30bab0b
DTITLE=Breen Leboeuf - L'Äme Nue
DYEAR=1994
DGENRE=Blues
TTITLE0=L'Äme Nue
TTITLE1=Dans La Rue ..... Ou Ailleurs
TTITLE2=Pour Une Fois La Vie
TTITLE3=Au-Delà
TTITLE4=The House Of Rising Sun
TTITLE5=Fais Un Voeu
TTITLE6=D'une Autre Couleur
TTITLE7=Pour Avoir La Lune
TTITLE8=Crier Chute
TTITLE9=Un Simple Regard
TTITLE10=Irréelle
EXTD=
EXTT0=
EXTT1=
EXTT2=
EXTT3=
EXTT4=
EXTT5=
EXTT6=
EXTT7=
EXTT8=
EXTT9=
EXTT10=
PLAYORDER=
